<?xml version="1.0" standalone="no"?>
<svg viewBox="0 0 200 200" xmlns="http://www.w3.org/2000/svg">
  <path fill="#F2F4F8" d="M42.8,-58.1C58.1,-47.8,74.9,-38.8,82.2,-24.7C89.5,-10.6,87.4,8.5,79.6,23.7C71.7,38.9,58.2,50.2,44,59.3C29.7,68.4,14.9,75.4,-1.5,77.5C-17.9,79.6,-35.8,76.8,-50.5,67.8C-65.2,58.8,-76.7,43.7,-82.3,26.7C-87.9,9.6,-87.8,-9.4,-81.3,-25.5C-74.9,-41.7,-62.2,-54.9,-47.6,-65.4C-33,-76,-16.5,-83.9,-1.4,-82C13.8,-80.1,27.5,-68.5,42.8,-58.1Z" transform="translate(100 100)" />
</svg>
