<?xml version="1.0" encoding="UTF-8"?>
<svg version="1.1" xmlns="http://www.w3.org/2000/svg" width="427" height="427">
<path d="M0 0 C1.31971298 -0.01489471 2.63942596 -0.02978943 3.99913025 -0.0451355 C7.52265842 -0.07901055 11.04576217 -0.08771756 14.56943893 -0.08627319 C16.77044827 -0.08593435 18.97139328 -0.09150719 21.1723938 -0.09741211 C38.76942877 -0.12236107 55.61572287 0.4893381 72.82107544 4.54156494 C89.25104302 8.37869638 105.49476327 8.0523316 122.29467773 7.63085938 C123.85593384 7.5972934 123.85593384 7.5972934 125.44873047 7.56304932 C127.40074652 7.51718784 129.35249357 7.4564395 131.3034668 7.37786865 C138.30533397 7.19842817 143.04873715 8.11384111 148.42578125 12.94140625 C151.97418364 17.67309162 153.29873077 23.50631988 154.9375 29.1015625 C155.31479248 30.35646484 155.69208496 31.61136719 156.08081055 32.90429688 C157.33578775 37.10684412 158.54815016 41.32105177 159.75 45.5390625 C159.96628052 46.29741394 160.18256104 47.05576538 160.40539551 47.83709717 C173.95560692 95.49633295 173.95560692 95.49633295 174.1875 113.8515625 C174.19797363 114.61098145 174.20844727 115.37040039 174.21923828 116.15283203 C174.13171869 121.52269851 172.96725186 125.63776891 170.75 130.5390625 C165.13561656 135.87957357 160.91928866 135.88586904 153.36328125 135.81640625 C148.41318966 135.43645327 144.93818055 134.1270805 140.75 131.5390625 C140.09902344 131.16136719 139.44804687 130.78367188 138.77734375 130.39453125 C127.48404172 122.96295477 120.83045317 109.5654019 114.07495117 98.28271484 C99.96480358 74.81498872 84.41067891 53.17889207 56.5625 45.7265625 C54.63100601 45.30239127 52.69343729 44.904633 50.75 44.5390625 C49.93144531 44.384375 49.11289062 44.2296875 48.26953125 44.0703125 C34.20994121 42.05197005 21.19487231 46.22295302 9.9296875 54.6484375 C-18.47135798 79.14108223 -27.14133831 119.31887691 -33.25 154.5390625 C-31.99509766 154.66861328 -31.99509766 154.66861328 -30.71484375 154.80078125 C-18.18963743 156.31268323 -4.88895449 158.49598042 3.75 168.5390625 C5.75 171.5390625 5.75 171.5390625 5.375 174.2265625 C5.16875 174.9896875 4.9625 175.7528125 4.75 176.5390625 C3.55375 176.7040625 2.3575 176.8690625 1.125 177.0390625 C-9.20841 179.36978431 -18.12969087 185.69465486 -25.2109375 193.359375 C-27.8568928 196.18780997 -30.75537097 198.64178457 -33.71875 201.12890625 C-35.67304604 202.92865337 -36.21007862 204.01252365 -36.41113281 206.66430664 C-36.9581091 241.31143857 -33.92139972 282.72988678 -8.6875 309.28515625 C1.51320142 318.71753561 14.84424365 323.70864489 28.75 323.5390625 C44.21832797 322.39910636 55.10705741 317.70371282 65.8125 306.4765625 C76.72575478 293.64378267 83.24865128 276.67479914 89.87084961 261.35253906 C96.50309205 246.07242009 104.8819866 230.72091566 120.75 223.5390625 C131.74599242 219.77897578 144.9074308 220.3603205 155.75 224.5390625 C166.20413343 229.72457861 172.66083427 238.03259032 176.83984375 248.7421875 C182.01346925 264.64053881 178.51156667 282.12245907 171.5 296.8515625 C155.45968731 326.94852447 126.69266788 345.67765214 94.75 355.5390625 C87.82280044 357.57432488 80.83821698 359.17520503 73.75 360.5390625 C72.90066895 360.70422363 72.05133789 360.86938477 71.17626953 361.03955078 C43.66309352 366.07746807 12.20606365 365.99778285 -15.25 360.5390625 C-15.21519531 361.72886719 -15.18039063 362.91867187 -15.14453125 364.14453125 C-15.14875022 367.97451312 -15.73629132 371.19096212 -16.9375 374.8515625 C-17.25074219 375.85832031 -17.56398437 376.86507813 -17.88671875 377.90234375 C-19.53724475 381.09462184 -21.02107609 382.0495589 -24.25 383.5390625 C-26.9375 383.8515625 -26.9375 383.8515625 -29.25 383.5390625 C-29.91 382.8790625 -30.57 382.2190625 -31.25 381.5390625 C-30.9453125 379.7265625 -30.9453125 379.7265625 -30.375 377.5390625 C-29.9291719 374.27664982 -30.05876903 372.88380216 -31.67578125 369.96875 C-35.4544959 365.17014926 -39.67703636 360.98542516 -44.390625 357.109375 C-46.25 355.5390625 -46.25 355.5390625 -47.890625 353.61328125 C-51.40680537 350.5220697 -55.46582918 349.03520636 -59.75 347.2265625 C-73.67969199 341.13263329 -85.84156657 333.24701134 -98.25 324.5390625 C-98.23839844 325.3640625 -98.22679687 326.1890625 -98.21484375 327.0390625 C-97.93493082 362.86791742 -97.93493082 362.86791742 -108.25 374.5390625 C-110.56325676 375.6515141 -112.71797243 376.2520376 -115.2109375 376.83984375 C-118.53715786 377.98044422 -119.567322 380.59437599 -121.25 383.5390625 C-124.6561906 387.13989257 -127.92123535 388.58909445 -132.796875 388.9765625 C-137.01345484 388.224561 -139.577344 385.33724953 -142.6875 382.54296875 C-145.99654676 379.95525383 -149.0613008 379.07372862 -153.12109375 378.20703125 C-155.54923786 377.44517319 -156.61765344 376.45483901 -158.25 374.5390625 C-161.36288838 375.9364035 -163.61895011 377.60930175 -166.125 379.9140625 C-168.59026175 382.15437485 -170.63437892 383.75663547 -173.5625 385.4140625 C-177.41590077 388.46093753 -178.19684281 391.8268086 -179.25 396.5390625 C-179.57459696 400.24033695 -179.5382312 403.89000518 -179.4375 407.6015625 C-179.42396484 408.56255859 -179.41042969 409.52355469 -179.39648438 410.51367188 C-179.36152306 412.85608002 -179.31246104 415.19725406 -179.25 417.5390625 C-181.23 417.5390625 -183.21 417.5390625 -185.25 417.5390625 C-187.69984602 410.91802319 -189.19217955 404.37597205 -190.3125 397.4140625 C-190.48168945 396.37870361 -190.65087891 395.34334473 -190.82519531 394.27661133 C-197.23061582 353.50839303 -192.3936629 317.13330925 -167.78808594 283.17919922 C-163.51598413 277.41876369 -159.29682672 272.33589986 -153.625 267.9140625 C-150.32509711 265.33742599 -147.59766202 263.02116522 -145.25 259.5390625 C-147.168125 259.6009375 -147.168125 259.6009375 -149.125 259.6640625 C-159.01584623 259.98312206 -166.49964184 256.72604641 -174.75 251.6015625 C-186.83155358 244.1509737 -197.80015888 240.37784751 -212.16796875 243.08984375 C-218.68571904 245.07432472 -223.31147086 248.66181215 -228.19189453 253.27294922 C-229.62109375 254.58984375 -229.62109375 254.58984375 -232.25 256.5390625 C-234.59765625 256.33203125 -234.59765625 256.33203125 -236.25 255.5390625 C-237.14453125 253.453125 -237.14453125 253.453125 -237.25 250.5390625 C-235.47539799 247.99449827 -233.22282393 245.9972506 -230.9375 243.9140625 C-229.73115399 242.77807601 -228.52665359 241.64012564 -227.32421875 240.5 C-226.51343872 239.75435791 -226.51343872 239.75435791 -225.6862793 238.99365234 C-224.0167674 237.39494011 -224.0167674 237.39494011 -222.25 234.5390625 C-221.59 234.5390625 -220.93 234.5390625 -220.25 234.5390625 C-220.0128125 233.95898438 -219.775625 233.37890625 -219.53125 232.78125 C-213.22276376 221.74139908 -197.76611228 215.87615541 -186.13671875 212.57421875 C-176.37253447 209.93058889 -167.37825164 209.27291866 -157.25 209.5390625 C-157.40702393 208.96462402 -157.56404785 208.39018555 -157.72583008 207.79833984 C-161.89428257 189.83147475 -159.4946728 166.97164569 -156.515625 148.921875 C-156.22197286 145.1821286 -156.48546869 144.09058197 -158.875 141.2890625 C-159.42929688 140.63292969 -159.98359375 139.97679687 -160.5546875 139.30078125 C-163.19758332 136.55436187 -165.83375373 134.24718563 -169.25 132.5390625 C-169.29254356 130.53951504 -169.29080783 128.53864614 -169.25 126.5390625 C-168.25 125.5390625 -168.25 125.5390625 -164.43359375 125.44140625 C-162.85153318 125.44808161 -161.26948841 125.46004375 -159.6875 125.4765625 C-158.88119141 125.48107422 -158.07488281 125.48558594 -157.24414062 125.49023438 C-155.24606244 125.50205732 -153.24802217 125.51999336 -151.25 125.5390625 C-150.94449219 124.50652344 -150.63898438 123.47398438 -150.32421875 122.41015625 C-139.88267335 88.51547513 -120.33690797 57.46256945 -92.25 35.5390625 C-91.50878906 34.89710937 -90.76757812 34.25515625 -90.00390625 33.59375 C-75.01890028 20.76429948 -56.26686756 12.29259802 -37.625 6.2890625 C-36.89796875 6.05469482 -36.1709375 5.82032715 -35.421875 5.57885742 C-23.67702443 1.96435891 -12.2895243 0.06757937 0 0 Z " fill="#F799AE" transform="translate(237.25,-0.5390625)"/>
<path d="M0 0 C1.31971298 -0.01489471 2.63942596 -0.02978943 3.99913025 -0.0451355 C7.52265842 -0.07901055 11.04576217 -0.08771756 14.56943893 -0.08627319 C16.77044827 -0.08593435 18.97139328 -0.09150719 21.1723938 -0.09741211 C38.76942877 -0.12236107 55.61572287 0.4893381 72.82107544 4.54156494 C89.25104302 8.37869638 105.49476327 8.0523316 122.29467773 7.63085938 C123.85593384 7.5972934 123.85593384 7.5972934 125.44873047 7.56304932 C127.40074652 7.51718784 129.35249357 7.4564395 131.3034668 7.37786865 C138.30533397 7.19842817 143.04873715 8.11384111 148.42578125 12.94140625 C151.97418364 17.67309162 153.29873077 23.50631988 154.9375 29.1015625 C155.31479248 30.35646484 155.69208496 31.61136719 156.08081055 32.90429688 C157.33578775 37.10684412 158.54815016 41.32105177 159.75 45.5390625 C159.96628052 46.29741394 160.18256104 47.05576538 160.40539551 47.83709717 C173.95560692 95.49633295 173.95560692 95.49633295 174.1875 113.8515625 C174.19797363 114.61098145 174.20844727 115.37040039 174.21923828 116.15283203 C174.13171869 121.52269851 172.96725186 125.63776891 170.75 130.5390625 C165.13561656 135.87957357 160.91928866 135.88586904 153.36328125 135.81640625 C148.41318966 135.43645327 144.93818055 134.1270805 140.75 131.5390625 C140.09902344 131.16136719 139.44804687 130.78367188 138.77734375 130.39453125 C127.48404172 122.96295477 120.83045317 109.5654019 114.07495117 98.28271484 C99.96480358 74.81498872 84.41067891 53.17889207 56.5625 45.7265625 C54.63100601 45.30239127 52.69343729 44.904633 50.75 44.5390625 C49.93144531 44.384375 49.11289062 44.2296875 48.26953125 44.0703125 C34.20994121 42.05197005 21.19487231 46.22295302 9.9296875 54.6484375 C-18.47135798 79.14108223 -27.14133831 119.31887691 -33.25 154.5390625 C-31.99509766 154.66861328 -31.99509766 154.66861328 -30.71484375 154.80078125 C-18.18963743 156.31268323 -4.88895449 158.49598042 3.75 168.5390625 C5.75 171.5390625 5.75 171.5390625 5.375 174.2265625 C5.16875 174.9896875 4.9625 175.7528125 4.75 176.5390625 C3.55375 176.7040625 2.3575 176.8690625 1.125 177.0390625 C-9.20841 179.36978431 -18.12969087 185.69465486 -25.2109375 193.359375 C-27.8568928 196.18780997 -30.75537097 198.64178457 -33.71875 201.12890625 C-35.67304604 202.92865337 -36.21007862 204.01252365 -36.41113281 206.66430664 C-36.70092103 225.02036825 -36.28872757 243.73529407 -31.53271484 261.58398438 C-31.20756912 263.83248782 -31.57068257 265.38879159 -32.25 267.5390625 C-34.39326621 262.19287053 -35.99939006 257.06006832 -36.875 251.3515625 C-36.99979736 250.54364258 -37.12459473 249.73572266 -37.25317383 248.90332031 C-39.31070317 233.60633373 -39.02883043 217.95006069 -39.25 202.5390625 C-40.9 204.1890625 -42.55 205.8390625 -44.25 207.5390625 C-44.91 207.2090625 -45.57 206.8790625 -46.25 206.5390625 C-33.70468186 192.68758573 -21.58486605 180.22912699 -4.25 172.5390625 C-3.26 172.5390625 -2.27 172.5390625 -1.25 172.5390625 C-10.02048911 162.88742612 -25.33011335 160.95432733 -37.81640625 160.21875 C-53.80089546 159.63461045 -67.03053508 164.21927146 -79.75 174.1015625 C-84.65248887 178.88148914 -87.0268617 184.01067028 -89 190.4140625 C-89.22042969 191.10242188 -89.44085938 191.79078125 -89.66796875 192.5 C-90.20368824 194.17703493 -90.72804778 195.85769181 -91.25 197.5390625 C-91.91 197.5390625 -92.57 197.5390625 -93.25 197.5390625 C-94.24 208.4290625 -95.23 219.3190625 -96.25 230.5390625 C-96.91 230.5390625 -97.57 230.5390625 -98.25 230.5390625 C-98.99790943 226.49206238 -99.39968173 222.6086992 -99.49609375 218.49609375 C-99.54310425 216.77471191 -99.54310425 216.77471191 -99.59106445 215.01855469 C-99.62288818 213.80844727 -99.65471191 212.59833984 -99.6875 211.3515625 C-99.96316496 202.81534016 -100.26383651 194.29452446 -101.0625 185.7890625 C-101.12042725 185.05921143 -101.17835449 184.32936035 -101.23803711 183.57739258 C-102.92071001 167.55542018 -118.56010542 152.88170696 -130.375 143.0390625 C-139.13663518 136.40485311 -148.16918503 132.5390625 -159.25 132.5390625 C-158.74210937 133.07273438 -158.23421875 133.60640625 -157.7109375 134.15625 C-140.89043635 152.36271005 -137.23271015 175.32680337 -135.81958008 199.28857422 C-135.23969924 208.75417396 -133.55039208 215.62376268 -128.25 223.5390625 C-126.25 226.5390625 -126.25 226.5390625 -126.625 228.7265625 C-126.83125 229.3246875 -127.0375 229.9228125 -127.25 230.5390625 C-127.78882812 229.79011719 -128.32765625 229.04117188 -128.8828125 228.26953125 C-131.43081738 225.33049592 -133.75214879 223.76112839 -137.125 221.8515625 C-138.63707031 220.97951172 -138.63707031 220.97951172 -140.1796875 220.08984375 C-154.80554258 212.70248438 -173.09447986 214.60361766 -188.3125 219.2265625 C-193.82751417 221.16743734 -198.68758991 223.89446059 -203.65625 226.953125 C-205.81738706 228.27454314 -207.9655532 229.45071756 -210.25 230.5390625 C-209.65259926 227.32803353 -209.06273481 225.15894498 -206.40625 223.1328125 C-204.99726368 222.29558875 -203.57018303 221.48791041 -202.125 220.71484375 C-199.94550061 219.52672079 -199.94550061 219.52672079 -198.25 216.5390625 C-195.75800611 215.5475608 -193.3764853 214.72426923 -190.8125 213.9765625 C-190.08820801 213.76040283 -189.36391602 213.54424316 -188.61767578 213.3215332 C-178.00148191 210.22386687 -168.33642086 209.24774049 -157.25 209.5390625 C-157.40702393 208.96462402 -157.56404785 208.39018555 -157.72583008 207.79833984 C-161.89428257 189.83147475 -159.4946728 166.97164569 -156.515625 148.921875 C-156.22197286 145.1821286 -156.48546869 144.09058197 -158.875 141.2890625 C-159.70644531 140.30486328 -159.70644531 140.30486328 -160.5546875 139.30078125 C-163.19758332 136.55436187 -165.83375373 134.24718563 -169.25 132.5390625 C-169.29254356 130.53951504 -169.29080783 128.53864614 -169.25 126.5390625 C-168.25 125.5390625 -168.25 125.5390625 -164.43359375 125.44140625 C-162.85153318 125.44808161 -161.26948841 125.46004375 -159.6875 125.4765625 C-158.88119141 125.48107422 -158.07488281 125.48558594 -157.24414062 125.49023438 C-155.24606244 125.50205732 -153.24802217 125.51999336 -151.25 125.5390625 C-150.94449219 124.50652344 -150.63898438 123.47398438 -150.32421875 122.41015625 C-139.88267335 88.51547513 -120.33690797 57.46256945 -92.25 35.5390625 C-91.50878906 34.89710937 -90.76757812 34.25515625 -90.00390625 33.59375 C-75.01890028 20.76429948 -56.26686756 12.29259802 -37.625 6.2890625 C-36.89796875 6.05469482 -36.1709375 5.82032715 -35.421875 5.57885742 C-23.67702443 1.96435891 -12.2895243 0.06757937 0 0 Z " fill="#F798AD" transform="translate(237.25,-0.5390625)"/>
<path d="M0 0 C17.77392728 0.68757939 29.46602959 8.79405399 41.6171875 21.39453125 C59.49155561 40.93912719 60.903731 57.21665142 61.5625 82.75 C61.60581478 84.33334171 61.64943256 85.91667515 61.69335938 87.5 C61.79905873 91.33324729 61.9006837 95.16658224 62 99 C62.66 99 63.32 99 64 99 C63.98912354 98.39921631 63.97824707 97.79843262 63.96704102 97.17944336 C63.90346717 90.91227344 64.27658572 84.79196866 64.9375 78.5625 C65.06801758 77.23702148 65.06801758 77.23702148 65.20117188 75.88476562 C65.55901798 72.3990795 65.8873907 69.3378279 67 66 C67.66 66 68.32 66 69 66 C69.14695313 65.18208984 69.14695313 65.18208984 69.296875 64.34765625 C71.76001994 51.92576149 76.71740205 43.756301 87.25 36.671875 C96.76785863 30.88544958 106.36005193 27.60256559 117.5 27.6875 C118.66523193 27.69487183 118.66523193 27.69487183 119.85400391 27.70239258 C133.00545773 27.96285708 148.78142317 30.0229325 159 39 C159 39.66 159 40.32 159 41 C157.9378125 41.50789063 156.875625 42.01578125 155.78125 42.5390625 C144.80775469 47.83920281 144.80775469 47.83920281 135 55 C134.2265625 55.65484375 133.453125 56.3096875 132.65625 56.984375 C125.58482795 63.13913123 119.27706984 69.92631404 113.23828125 77.08984375 C102.54206876 89.75436653 86.97011405 105.4984294 70 108 C66.625 107.875 66.625 107.875 64 107 C62.625 104.9375 62.625 104.9375 62 103 C61.01 103.495 61.01 103.495 60 104 C60.886875 104.9075 61.77375 105.815 62.6875 106.75 C72.7564472 118.48520324 74.11953713 134.57583118 73.29443359 149.34960938 C72.36037144 157.75771777 68.58399636 165.48586132 64.3125 172.6875 C56.38610448 186.09355802 57.8396361 203.96142973 58 219 C58.05534912 218.22285645 58.11069824 217.44571289 58.16772461 216.64501953 C58.41994959 213.13801626 58.67864174 209.63151963 58.9375 206.125 C59.06801758 204.29001953 59.06801758 204.29001953 59.20117188 202.41796875 C59.33168945 200.66806641 59.33168945 200.66806641 59.46484375 198.8828125 C59.543396 197.80402832 59.62194824 196.72524414 59.70288086 195.61376953 C60 193 60 193 61 191 C61.99 191.33 62.98 191.66 64 192 C63.34 192.33 62.68 192.66 62 193 C62.01160156 193.825 62.02320313 194.65 62.03515625 195.5 C62.31506918 231.32885492 62.31506918 231.32885492 52 243 C49.68674324 244.1124516 47.53202757 244.7129751 45.0390625 245.30078125 C41.71284214 246.44138172 40.682678 249.05531349 39 252 C35.5938094 255.60083007 32.32876465 257.05003195 27.453125 257.4375 C23.23654516 256.6854985 20.672656 253.79818703 17.5625 251.00390625 C14.25345324 248.41619133 11.1886992 247.53466612 7.12890625 246.66796875 C4.70076214 245.90611069 3.63234656 244.91577651 2 243 C-1.11288838 244.397341 -3.36895011 246.07023925 -5.875 248.375 C-8.34026175 250.61531235 -10.38437892 252.21757297 -13.3125 253.875 C-17.16590077 256.92187503 -17.94684281 260.2877461 -19 265 C-19.32459696 268.70127445 -19.2882312 272.35094268 -19.1875 276.0625 C-19.17396484 277.02349609 -19.16042969 277.98449219 -19.14648438 278.97460938 C-19.11152306 281.31701752 -19.06246104 283.65819156 -19 286 C-20.98 286 -22.96 286 -25 286 C-27.44984602 279.37896069 -28.94217955 272.83690955 -30.0625 265.875 C-30.23168945 264.83964111 -30.40087891 263.80428223 -30.57519531 262.73754883 C-36.98061582 221.96933053 -32.1436629 185.59424675 -7.53808594 151.64013672 C-3.26598413 145.87970119 0.95317328 140.79683736 6.625 136.375 C9.92490289 133.79836349 12.65233798 131.48210272 15 128 C13.72125 128.04125 12.4425 128.0825 11.125 128.125 C1.23415377 128.44405956 -6.24964184 125.18698391 -14.5 120.0625 C-26.58155358 112.6119112 -37.55015888 108.83878501 -51.91796875 111.55078125 C-58.43571904 113.53526222 -63.06147086 117.12274965 -67.94189453 121.73388672 C-69.37109375 123.05078125 -69.37109375 123.05078125 -72 125 C-74.34765625 124.79296875 -74.34765625 124.79296875 -76 124 C-76.89453125 121.9140625 -76.89453125 121.9140625 -77 119 C-75.22539799 116.45543577 -72.97282393 114.4581881 -70.6875 112.375 C-69.48115399 111.23901351 -68.27665359 110.10106314 -67.07421875 108.9609375 C-66.53369873 108.46384277 -65.99317871 107.96674805 -65.4362793 107.45458984 C-63.7667674 105.85587761 -63.7667674 105.85587761 -62 103 C-61.34 103 -60.68 103 -60 103 C-59.76667969 102.4225 -59.53335938 101.845 -59.29296875 101.25 C-55.65271089 94.91529146 -47.49489674 90.11213802 -41 87 C-40.01 87.495 -40.01 87.495 -39 88 C-39.54269531 88.37511719 -40.08539063 88.75023437 -40.64453125 89.13671875 C-41.35996094 89.64847656 -42.07539062 90.16023438 -42.8125 90.6875 C-43.87404297 91.43580078 -43.87404297 91.43580078 -44.95703125 92.19921875 C-47.26314456 94.2319496 -48.54650116 96.3085053 -50 99 C-49.10539062 98.39671875 -48.21078125 97.7934375 -47.2890625 97.171875 C-30.47144792 85.9904718 -12.28546643 80.12930501 8.125 83.75 C17.41296462 85.90480779 24.95218931 89.48197918 32 96 C32.33 96.66 32.66 97.32 33 98 C32.58277442 93.54959382 30.66402871 90.59801344 28.25390625 86.96484375 C25.56850865 82.75688427 24.69321364 79.63629276 24.32421875 74.6015625 C24.16977295 72.69080933 24.16977295 72.69080933 24.01220703 70.74145508 C23.95985901 70.06950104 23.90751099 69.397547 23.85357666 68.70523071 C21.73724078 42.19658774 16.89890345 21.03894662 0 0 Z " fill="#C6EDFE" transform="translate(77,131)"/>
<path d="M0 0 C1.71484375 1.5859375 1.71484375 1.5859375 2.71484375 3.5859375 C3.37484375 2.9259375 4.03484375 2.2659375 4.71484375 1.5859375 C4.96878906 2.29621094 5.22273438 3.00648438 5.484375 3.73828125 C5.82855469 4.65738281 6.17273438 5.57648438 6.52734375 6.5234375 C6.86378906 7.43996094 7.20023437 8.35648438 7.546875 9.30078125 C8.54893469 11.9199799 8.54893469 11.9199799 11.71484375 12.5859375 C11.92109375 11.9878125 12.12734375 11.3896875 12.33984375 10.7734375 C14.3040776 7.64852001 16.28849647 6.87889874 19.71484375 5.5859375 C23.58984375 5.3984375 23.58984375 5.3984375 26.71484375 5.5859375 C26.71484375 6.2459375 26.71484375 6.9059375 26.71484375 7.5859375 C26.02777344 7.69550781 25.34070313 7.80507812 24.6328125 7.91796875 C23.73175781 8.07652344 22.83070313 8.23507813 21.90234375 8.3984375 C21.00902344 8.54925781 20.11570312 8.70007813 19.1953125 8.85546875 C16.45800748 9.66157275 15.40334832 10.31335902 13.71484375 12.5859375 C13.07631082 14.45157635 13.07631082 14.45157635 12.65234375 16.5234375 C11.28986932 21.02839329 8.84407349 24.11008991 5.77734375 27.5859375 C-1.02930725 35.37612395 -3.35329692 42.24464707 -5.4921875 52.27734375 C-6.67333349 57.20557359 -8.42657836 61.87816914 -10.28515625 66.5859375 C-10.94515625 66.5859375 -11.60515625 66.5859375 -12.28515625 66.5859375 C-12.4965625 67.27171875 -12.70796875 67.9575 -12.92578125 68.6640625 C-14.70782016 72.49442199 -17.22543865 75.21620559 -20.03515625 78.3359375 C-31.20497968 90.83148748 -31.20497968 90.83148748 -34.75 106.62109375 C-34.22730735 109.95490653 -33.17764163 111.77293839 -31.34765625 114.5859375 C-27.66460595 120.51307892 -27.62786773 125.97479178 -27.77563477 132.7734375 C-27.78792979 137.93948763 -27.02239211 141.16876201 -23.71801758 145.22314453 C-21.63508697 147.20421774 -19.67135427 147.92451309 -16.91015625 148.6484375 C-12.95213544 149.85812751 -10.48516719 150.98847196 -7.53515625 153.8984375 C-4.94078195 156.31944072 -4.49227356 156.56413568 -0.72265625 156.9609375 C3.50266712 155.27080815 4.93511483 153.24220333 7.35546875 149.49609375 C8.71484375 147.5859375 8.71484375 147.5859375 11.71484375 145.5859375 C13.13796875 145.555 13.13796875 145.555 14.58984375 145.5234375 C18.16645658 144.45045365 18.5751117 143.90535436 20.46484375 140.8359375 C25.20041495 130.92083529 25.11973061 119.06923207 25.83984375 108.2734375 C25.92621094 107.04431641 26.01257813 105.81519531 26.1015625 104.54882812 C26.310792 101.56149586 26.51515265 98.57391986 26.71484375 95.5859375 C27.04484375 95.5859375 27.37484375 95.5859375 27.71484375 95.5859375 C27.71484375 105.1559375 27.71484375 114.7259375 27.71484375 124.5859375 C28.33262105 116.11971724 28.33262105 116.11971724 28.94116211 107.65283203 C29.01987549 106.60208496 29.09858887 105.55133789 29.1796875 104.46875 C29.25823975 103.38996582 29.33679199 102.31118164 29.41772461 101.19970703 C29.71484375 98.5859375 29.71484375 98.5859375 30.71484375 96.5859375 C31.70484375 96.9159375 32.69484375 97.2459375 33.71484375 97.5859375 C32.72484375 98.0809375 32.72484375 98.0809375 31.71484375 98.5859375 C31.72644531 99.4109375 31.73804688 100.2359375 31.75 101.0859375 C32.02991293 136.91479242 32.02991293 136.91479242 21.71484375 148.5859375 C19.40158699 149.6983891 17.24687132 150.2989126 14.75390625 150.88671875 C11.42768589 152.02731922 10.39752175 154.64125099 8.71484375 157.5859375 C5.30865315 161.18676757 2.0436084 162.63596945 -2.83203125 163.0234375 C-7.04861109 162.271436 -9.61250025 159.38412453 -12.72265625 156.58984375 C-16.03170301 154.00212883 -19.09645705 153.12060362 -23.15625 152.25390625 C-25.58439411 151.49204819 -26.65280969 150.50171401 -28.28515625 148.5859375 C-31.39804463 149.9832785 -33.65410636 151.65617675 -36.16015625 153.9609375 C-38.625418 156.20124985 -40.66953517 157.80351047 -43.59765625 159.4609375 C-47.45105702 162.50781253 -48.23199906 165.8736836 -49.28515625 170.5859375 C-49.60975321 174.28721195 -49.57338745 177.93688018 -49.47265625 181.6484375 C-49.45912109 182.60943359 -49.44558594 183.57042969 -49.43164062 184.56054688 C-49.39667931 186.90295502 -49.34761729 189.24412906 -49.28515625 191.5859375 C-51.26515625 191.5859375 -53.24515625 191.5859375 -55.28515625 191.5859375 C-57.73500227 184.96489819 -59.2273358 178.42284705 -60.34765625 171.4609375 C-60.5168457 170.42557861 -60.68603516 169.39021973 -60.86035156 168.32348633 C-67.26577207 127.55526803 -62.42881915 91.18018425 -37.82324219 57.22607422 C-33.55114038 51.46563869 -29.33198297 46.38277486 -23.66015625 41.9609375 C-20.36025336 39.38430099 -17.63281827 37.06804022 -15.28515625 33.5859375 C-16.56390625 33.6271875 -17.84265625 33.6684375 -19.16015625 33.7109375 C-29.05100248 34.02999706 -36.53479809 30.77292141 -44.78515625 25.6484375 C-56.86670983 18.1978487 -67.83531513 14.42472251 -82.203125 17.13671875 C-88.72087529 19.12119972 -93.34662711 22.70868715 -98.22705078 27.31982422 C-99.65625 28.63671875 -99.65625 28.63671875 -102.28515625 30.5859375 C-104.6328125 30.37890625 -104.6328125 30.37890625 -106.28515625 29.5859375 C-107.1796875 27.5 -107.1796875 27.5 -107.28515625 24.5859375 C-105.51055424 22.04137327 -103.25798018 20.0441256 -100.97265625 17.9609375 C-99.76631024 16.82495101 -98.56180984 15.68700064 -97.359375 14.546875 C-96.81885498 14.04978027 -96.27833496 13.55268555 -95.72143555 13.04052734 C-94.05192365 11.44181511 -94.05192365 11.44181511 -92.28515625 8.5859375 C-91.62515625 8.5859375 -90.96515625 8.5859375 -90.28515625 8.5859375 C-90.05183594 8.0084375 -89.81851563 7.4309375 -89.578125 6.8359375 C-85.93786714 0.50122896 -77.78005299 -4.30192448 -71.28515625 -7.4140625 C-70.62515625 -7.0840625 -69.96515625 -6.7540625 -69.28515625 -6.4140625 C-70.09919922 -5.85138672 -70.09919922 -5.85138672 -70.9296875 -5.27734375 C-71.64511719 -4.76558594 -72.36054687 -4.25382813 -73.09765625 -3.7265625 C-73.80535156 -3.22769531 -74.51304688 -2.72882813 -75.2421875 -2.21484375 C-77.54830081 -0.1821129 -78.83165741 1.8944428 -80.28515625 4.5859375 C-78.94324219 3.68101562 -78.94324219 3.68101562 -77.57421875 2.7578125 C-54.36483433 -12.67323951 -23.41356754 -18.84607018 0 0 Z " fill="#F39EB2" transform="translate(107.28515625,225.4140625)"/>
<path d="M0 0 C1.8084532 1.58521834 3.60167519 3.18808033 5.375 4.8125 C6.00277344 5.3590625 6.63054687 5.905625 7.27734375 6.46875 C16.04738474 14.5578231 22.30049349 25.40693319 28.25 35.625 C28.70213867 36.40069336 29.15427734 37.17638672 29.62011719 37.97558594 C32.19846633 42.49202302 34.44827157 47.05788528 36.50830078 51.83227539 C37.52557579 54.15653386 38.68134599 56.38689873 39.875 58.625 C44.85237533 68.53394659 47.24788684 78.98993523 49.375 89.8125 C49.54636475 90.56547363 49.71772949 91.31844727 49.89428711 92.09423828 C51.25342091 98.26462082 51.71056427 104.12711447 51.6875 110.4375 C51.70361328 111.32695312 51.71972656 112.21640625 51.73632812 113.1328125 C51.74067545 119.04516854 50.76561021 123.40051172 48.375 128.8125 C47.95238892 127.9447998 47.95238892 127.9447998 47.52124023 127.05957031 C42.63508667 117.48083603 35.40873088 110.48561913 27.8125 103.0625 C26.67703099 101.94211866 25.54226032 100.82102911 24.40820312 99.69921875 C22.32385391 97.63914933 20.23555015 95.5832842 18.14233398 93.53222656 C16.29754084 91.71917004 14.46131726 89.8973525 12.63378906 88.06689453 C11.28033297 86.71607163 9.90479706 85.38610478 8.48828125 84.1015625 C3.87422219 79.83781161 0.34512138 75.13866788 -3.125 69.9375 C-3.79341919 68.93710693 -3.79341919 68.93710693 -4.4753418 67.91650391 C-7.625 63.08162705 -7.625 63.08162705 -7.625 60.8125 C-8.285 60.8125 -8.945 60.8125 -9.625 60.8125 C-9.625 59.4925 -9.625 58.1725 -9.625 56.8125 C-10.285 56.8125 -10.945 56.8125 -11.625 56.8125 C-14.42001153 50.29080643 -16.06775641 44.94351738 -13.625 37.94921875 C-9.53564733 25.12206957 -14.36501458 10.91659733 -19.63671875 -0.82421875 C-20.625 -3.1875 -20.625 -3.1875 -20.625 -5.1875 C-12.27683407 -7.32805537 -6.57321913 -5.292839 0 0 Z " fill="#C6EDFD" transform="translate(165.625,246.1875)"/>
<path d="M0 0 C-1.051875 0.99 -1.051875 0.99 -2.125 2 C-3.08933393 2.99421469 -4.04722145 3.9947061 -5 5 C-5.72123047 5.71542969 -5.72123047 5.71542969 -6.45703125 6.4453125 C-12.2483893 13.01598258 -13.99180217 21.64861292 -16.38134766 29.87353516 C-19.338192 40.03695829 -24.32691759 47.70887272 -32.01171875 54.9609375 C-35.53873535 58.57803507 -38.2707275 62.76444546 -41 67 C-41.55300781 67.79148437 -42.10601562 68.58296875 -42.67578125 69.3984375 C-45.15402463 74.26719883 -44.52245662 79.67496138 -44 85 C-42.67014431 88.5047765 -42.67014431 88.5047765 -41 91 C-41 91.99 -41 92.98 -41 94 C-40.34 94 -39.68 94 -39 94 C-37.68152973 98.63512318 -37.77749943 103.14916125 -37.75 107.9375 C-37.729375 108.83146484 -37.70875 109.72542969 -37.6875 110.64648438 C-37.6582847 115.56560981 -37.66972164 119.09402801 -41 123 C-43.26953125 124.87890625 -43.26953125 124.87890625 -45.8125 126.5625 C-47.14087891 127.46355469 -47.14087891 127.46355469 -48.49609375 128.3828125 C-50.41976444 129.62524567 -52.38898111 130.79737804 -54.375 131.9375 C-57.90600562 134.71186156 -59.31221772 137.90961 -61 142 C-61.33 142 -61.66 142 -62 142 C-65.59436082 123.04402565 -66.04582529 104.18555928 -64 85 C-63.34 85 -62.68 85 -62 85 C-61.979375 83.845 -61.95875 82.69 -61.9375 81.5 C-61.17603429 74.42284813 -57.80373191 68.17399279 -54.82958984 61.79882812 C-53.83285197 59.63756719 -52.91760185 57.44583325 -52 55.25 C-44.81281082 39.2615495 -33.6383494 25.81975899 -20.125 14.75 C-17.80770231 12.84806699 -16.24586911 11.01891821 -14.625 8.5 C-11.4786653 3.80147351 -5.79002399 -1.930008 0 0 Z " fill="#C6EDFD" transform="translate(114,250)"/>
<path d="M0 0 C3.06093162 3.20724766 4.9301799 6.81648848 6.8515625 10.78515625 C7.94465412 13.25019668 7.94465412 13.25019668 10.04296875 15.140625 C9.66796875 18.265625 9.66796875 18.265625 9.04296875 21.140625 C7.21765625 21.2953125 7.21765625 21.2953125 5.35546875 21.453125 C1.54348899 21.93295462 -0.72356461 23.01126892 -3.95703125 25.140625 C-11.67787003 29.67845414 -19.58140921 30.62235713 -28.34375 28.5859375 C-33.4293308 26.72211208 -38.11021898 23.99392625 -42.86889648 21.43261719 C-57.16589804 13.76516773 -67.8231507 11.66140083 -83.95703125 12.140625 C-76.49732277 0.46587798 -64.91645859 -5.52860155 -51.76953125 -9.109375 C-33.82745861 -12.63896306 -14.75058937 -12.0093294 0 0 Z " fill="#C6EDFD" transform="translate(106.95703125,224.859375)"/>
<path d="M0 0 C1.06396981 4.25587923 0.77540332 5.67464485 -0.4375 9.75 C-0.86869141 11.22726563 -0.86869141 11.22726563 -1.30859375 12.734375 C-1.53675781 13.48203125 -1.76492187 14.2296875 -2 15 C-2.99 15 -3.98 15 -5 15 C-5 15.99 -5 16.98 -5 18 C-2.69 18.33 -0.38 18.66 2 19 C-1.26913624 20.03115279 -3.86041348 19.9638984 -7.25 19.5625 C-8.14203125 19.46066406 -9.0340625 19.35882813 -9.953125 19.25390625 C-10.62859375 19.17011719 -11.3040625 19.08632812 -12 19 C-11.49210937 19.53367188 -10.98421875 20.06734375 -10.4609375 20.6171875 C6.35956365 38.82364755 10.01728985 61.78774087 11.43041992 85.74951172 C12.01030076 95.21511146 13.69960792 102.08470018 19 110 C21 113 21 113 20.625 115.1875 C20.315625 116.0846875 20.315625 116.0846875 20 117 C19.46117188 116.25105469 18.92234375 115.50210938 18.3671875 114.73046875 C15.81918262 111.79143342 13.49785121 110.22206589 10.125 108.3125 C9.11695312 107.73113281 8.10890625 107.14976562 7.0703125 106.55078125 C-7.55554258 99.16342188 -25.84447986 101.06455516 -41.0625 105.6875 C-46.57751417 107.62837484 -51.43758991 110.35539809 -56.40625 113.4140625 C-58.56738706 114.73548064 -60.7155532 115.91165506 -63 117 C-62.40259926 113.78897103 -61.81273481 111.61988248 -59.15625 109.59375 C-57.74726368 108.75652625 -56.32018303 107.94884791 -54.875 107.17578125 C-52.69550061 105.98765829 -52.69550061 105.98765829 -51 103 C-48.50800611 102.0084983 -46.1264853 101.18520673 -43.5625 100.4375 C-42.83820801 100.22134033 -42.11391602 100.00518066 -41.36767578 99.7824707 C-30.75148191 96.68480437 -21.08642086 95.70867799 -10 96 C-10.15702393 95.42556152 -10.31404785 94.85112305 -10.47583008 94.25927734 C-14.64428257 76.29241225 -12.2446728 53.43258319 -9.265625 35.3828125 C-8.97197286 31.6430661 -9.23546869 30.55151947 -11.625 27.75 C-12.17929688 27.09386719 -12.73359375 26.43773437 -13.3046875 25.76171875 C-15.94758332 23.01529937 -18.58375373 20.70812313 -22 19 C-22.04254356 17.00045254 -22.04080783 14.99958364 -22 13 C-21 12 -21 12 -17.18359375 11.90234375 C-15.60153318 11.90901911 -14.01948841 11.92098125 -12.4375 11.9375 C-11.63119141 11.94201172 -10.82488281 11.94652344 -9.99414062 11.95117188 C-7.99606244 11.96299482 -5.99802217 11.98093086 -4 12 C-2.68 8.04 -1.36 4.08 0 0 Z " fill="#F4A2B5" transform="translate(90,113)"/>
<path d="M0 0 C0.33 0 0.66 0 1 0 C1.0825 0.78375 1.165 1.5675 1.25 2.375 C1.73053006 5.06570672 1.73053006 5.06570672 3.6875 6.25 C6.4362755 7.14149476 9.13978281 7.60997038 12 8 C12 8.33 12 8.66 12 9 C10.02 9 8.04 9 6 9 C6.48210937 10.11117187 6.96421875 11.22234375 7.4609375 12.3671875 C13.40912346 26.27708064 18.26637699 39.98259688 13 55 C12.62565672 60.80232086 13.40661665 65.42315829 15 71 C15.66 71 16.32 71 17 71 C17 72.32 17 73.64 17 75 C17.66 75 18.32 75 19 75 C20.43093335 77.09950898 21.75609177 79.19979125 23.0625 81.375 C29.52362932 91.79178801 37.95048483 100.08198513 46.70727539 108.57902527 C49.16933875 110.9734531 51.61754724 113.38185813 54.06542969 115.79077148 C55.3506763 117.0508776 56.64037517 118.30645929 57.93457031 119.55737305 C71.76302764 132.93674012 71.76302764 132.93674012 75 142 C77.4420792 135.16217825 77.62022758 128.20568193 78 121 C78.33 121 78.66 121 79 121 C79.495 127.435 79.495 127.435 80 134 C80.33 131.69 80.66 129.38 81 127 C88.68395543 126.7862269 95.56340812 126.98329712 103 129 C103 129.33 103 129.66 103 130 C96.13484138 130.26404456 89.74153283 129.25841946 83 128 C83.0825 129.0725 83.165 130.145 83.25 131.25 C83.23958761 137.07052517 81.66695988 142.84183978 79 148 C75.59546129 150.52386939 73.25558168 151.57507861 69 151 C68.34 150.34 67.68 149.68 67 149 C67.3046875 147.1875 67.3046875 147.1875 67.875 145 C68.3208281 141.73758732 68.19123097 140.34473966 66.57421875 137.4296875 C62.7955041 132.63108676 58.57296364 128.44636266 53.859375 124.5703125 C52 123 52 123 50.359375 121.07421875 C46.84321069 117.98302131 42.78418243 116.49608725 38.5 114.6875 C24.57815893 108.59840705 9.71894554 101.07471992 -1 90 C-1.0501123 90.83249268 -1.10022461 91.66498535 -1.15185547 92.52270508 C-1.34227712 95.6150058 -1.54073112 98.7066566 -1.74462891 101.7980957 C-1.87372111 103.79273943 -1.99354798 105.78797574 -2.11328125 107.78320312 C-2.23896484 109.66362305 -2.23896484 109.66362305 -2.3671875 111.58203125 C-2.44050293 112.73936768 -2.51381836 113.8967041 -2.58935547 115.08911133 C-3 118 -3 118 -5 121 C-5.70496841 83.4800146 -5.70496841 83.4800146 3.5 67.5625 C10.80232416 54.65343779 12.54466969 39.76181881 8.9765625 25.30078125 C6.50871896 16.72048601 3.6647738 9.12438673 -3 3 C-2.01 2.67 -1.02 2.34 0 2 C0 1.34 0 0.68 0 0 Z " fill="#F49EB2" transform="translate(139,232)"/>
<path d="M0 0 C0.66796875 1.703125 0.66796875 1.703125 1 4 C-0.07421875 6.296875 -0.07421875 6.296875 -1.6875 8.75 C-6.64028541 16.36966986 -9.88839972 24.05846536 -12.6875 32.6875 C-12.99494141 33.61111328 -13.30238281 34.53472656 -13.61914062 35.48632812 C-15.72950847 41.90055336 -17.13723257 47.5118357 -17.0625 54.3125 C-17.041875 56.189375 -17.02125 58.06625 -17 60 C-16.34 56.04 -15.68 52.08 -15 48 C-14.67 48 -14.34 48 -14 48 C-14.01047363 48.92111572 -14.02094727 49.84223145 -14.03173828 50.79125977 C-14.06630201 54.28591531 -14.09112862 57.78038318 -14.10986328 61.27514648 C-14.1197769 62.77322294 -14.13331185 64.27128085 -14.15087891 65.76928711 C-14.87999327 82.3119295 -14.87999327 82.3119295 -11 98 C-10.49597656 97.11441406 -9.99195313 96.22882813 -9.47265625 95.31640625 C-6.85860095 91.39474777 -3.41252407 89.34091378 0.5625 86.9375 C7.09390064 83.1766512 7.09390064 83.1766512 11 77 C11.3364588 73.21850383 11.28212686 69.47985351 11.1875 65.6875 C11.17396484 64.66076172 11.16042969 63.63402344 11.14648438 62.57617188 C11.11123883 60.05024091 11.061967 57.5253934 11 55 C11.99 55.495 11.99 55.495 13 56 C13.02578125 57.18078125 13.0515625 58.3615625 13.078125 59.578125 C13.13441397 61.13545323 13.19176114 62.69274347 13.25 64.25 C13.26417969 65.02730469 13.27835938 65.80460937 13.29296875 66.60546875 C13.46209957 71.33130677 13.46209957 71.33130677 15.859375 75.296875 C16.56578125 75.85890625 17.2721875 76.4209375 18 77 C18.46921875 77.70382812 18.9384375 78.40765625 19.421875 79.1328125 C21.47524686 81.56229703 23.22013039 81.98635109 26.25 82.875 C30.20110079 84.16950539 32.78538693 85.39505123 35.75 88.3125 C38.3443743 90.73350322 38.79288269 90.97819818 42.5625 91.375 C46.78782337 89.68487065 48.22027108 87.65626583 50.640625 83.91015625 C52 82 52 82 55 80 C55.94875 79.979375 56.8975 79.95875 57.875 79.9375 C61.45161283 78.86451615 61.86026795 78.31941686 63.75 75.25 C68.4855712 65.33489779 68.40488686 53.48329457 69.125 42.6875 C69.25455078 40.84381836 69.25455078 40.84381836 69.38671875 38.96289062 C69.59594825 35.97555836 69.8003089 32.98798236 70 30 C70.33 30 70.66 30 71 30 C71 39.57 71 49.14 71 59 C71.6177773 50.53377974 71.6177773 50.53377974 72.22631836 42.06689453 C72.30503174 41.01614746 72.38374512 39.96540039 72.46484375 38.8828125 C72.543396 37.80402832 72.62194824 36.72524414 72.70288086 35.61376953 C73 33 73 33 74 31 C75.485 31.495 75.485 31.495 77 32 C76.01 32.495 76.01 32.495 75 33 C75.01160156 33.825 75.02320313 34.65 75.03515625 35.5 C75.31506918 71.32885492 75.31506918 71.32885492 65 83 C62.68674324 84.1124516 60.53202757 84.7129751 58.0390625 85.30078125 C54.71284214 86.44138172 53.682678 89.05531349 52 92 C48.5938094 95.60083007 45.32876465 97.05003195 40.453125 97.4375 C36.23654516 96.6854985 33.672656 93.79818703 30.5625 91.00390625 C27.25345324 88.41619133 24.1886992 87.53466612 20.12890625 86.66796875 C17.70076214 85.90611069 16.63234656 84.91577651 15 83 C11.88711162 84.397341 9.63104989 86.07023925 7.125 88.375 C4.65973825 90.61531235 2.61562108 92.21757297 -0.3125 93.875 C-4.16590077 96.92187503 -4.94684281 100.2877461 -6 105 C-6.32459696 108.70127445 -6.2882312 112.35094268 -6.1875 116.0625 C-6.17396484 117.02349609 -6.16042969 117.98449219 -6.14648438 118.97460938 C-6.11152306 121.31701752 -6.06246104 123.65819156 -6 126 C-7.98 126 -9.96 126 -12 126 C-14.44984602 119.37896069 -15.94217955 112.83690955 -17.0625 105.875 C-17.23168945 104.83964111 -17.40087891 103.80428223 -17.57519531 102.73754883 C-23.44243336 65.39467008 -19.84914282 34.05544415 -1 1 C-0.67 0.67 -0.34 0.34 0 0 Z " fill="#EFBBCA" transform="translate(64,291)"/>
<path d="M0 0 C0.66796875 1.703125 0.66796875 1.703125 1 4 C-0.07421875 6.296875 -0.07421875 6.296875 -1.6875 8.75 C-6.64028541 16.36966986 -9.88839972 24.05846536 -12.6875 32.6875 C-12.99494141 33.61111328 -13.30238281 34.53472656 -13.61914062 35.48632812 C-15.72950847 41.90055336 -17.13723257 47.5118357 -17.0625 54.3125 C-17.041875 56.189375 -17.02125 58.06625 -17 60 C-16.34 56.04 -15.68 52.08 -15 48 C-14.67 48 -14.34 48 -14 48 C-14.00523682 48.95253662 -14.01047363 49.90507324 -14.01586914 50.88647461 C-14.03412605 54.45921876 -14.04550678 58.03195888 -14.05493164 61.60473633 C-14.05992496 63.14380591 -14.06672194 64.68287084 -14.07543945 66.22192383 C-14.1195909 74.22372458 -14.02581061 82.04996775 -13 90 C-12.93826209 92.3534492 -12.9127197 94.70837157 -12.9375 97.0625 C-12.94652344 98.18785156 -12.95554687 99.31320312 -12.96484375 100.47265625 C-12.97644531 101.30667969 -12.98804688 102.14070313 -13 103 C-12.01 103 -11.02 103 -10 103 C-9.938125 102.0925 -9.87625 101.185 -9.8125 100.25 C-8.81553956 96.26215824 -7.35111834 95.23407889 -4 93 C-4.88625797 100.59649692 -4.88625797 100.59649692 -5.51367188 102.82226562 C-6.0613558 105.27474587 -6.11297377 107.47230218 -6.09765625 109.984375 C-6.09443359 110.91894531 -6.09121094 111.85351562 -6.08789062 112.81640625 C-6.07951172 113.78449219 -6.07113281 114.75257813 -6.0625 115.75 C-6.05798828 116.73355469 -6.05347656 117.71710938 -6.04882812 118.73046875 C-6.03706483 121.15370791 -6.02062684 123.57682273 -6 126 C-7.98 126 -9.96 126 -12 126 C-14.44984602 119.37896069 -15.94217955 112.83690955 -17.0625 105.875 C-17.23168945 104.83964111 -17.40087891 103.80428223 -17.57519531 102.73754883 C-23.44243336 65.39467008 -19.84914282 34.05544415 -1 1 C-0.67 0.67 -0.34 0.34 0 0 Z " fill="#EBAFC1" transform="translate(64,291)"/>
<path d="M0 0 C0.66 0.33 1.32 0.66 2 1 C1.46890625 1.54527344 0.9378125 2.09054688 0.390625 2.65234375 C-7.23074088 10.7882909 -9.9056432 17.89649768 -12.20703125 28.69140625 C-13.38817724 33.61963609 -15.14142211 38.29223164 -17 43 C-17.66 43 -18.32 43 -19 43 C-19.21140625 43.68578125 -19.4228125 44.3715625 -19.640625 45.078125 C-21.42266391 48.90848449 -23.9402824 51.63026809 -26.75 54.75 C-37.91534984 67.24489201 -37.91534984 67.24489201 -41.46875 83.03125 C-40.9380257 86.3925039 -39.85302833 88.2305133 -38 91.0625 C-33.48775567 98.38425495 -34.09908647 106.69253772 -35 115 C-35.99 115.99 -35.99 115.99 -37 117 C-37.02505615 116.44014404 -37.0501123 115.88028809 -37.07592773 115.3034668 C-37.19203745 112.76458695 -37.3146958 110.22606447 -37.4375 107.6875 C-37.47681641 106.80642578 -37.51613281 105.92535156 -37.55664062 105.01757812 C-37.59853516 104.17001953 -37.64042969 103.32246094 -37.68359375 102.44921875 C-37.72025146 101.66893311 -37.75690918 100.88864746 -37.79467773 100.0847168 C-37.94125263 97.80670899 -37.94125263 97.80670899 -39 95 C-39.66 95 -40.32 95 -41 95 C-45.10479621 87.90823154 -46.40058385 81.12144109 -45 73 C-42.22957644 66.33822492 -37.43650895 61.26844577 -32.5625 56.0625 C-23.18610418 46.01613319 -18.23537059 37.46333661 -15.25268555 24.00439453 C-13.14885313 14.95056023 -8.81845239 8.25024802 -2 2 C-1.34 1.34 -0.68 0.68 0 0 Z " fill="#EAA9BD" transform="translate(114,249)"/>
<path d="M0 0 C0.66 0.33 1.32 0.66 2 1 C1.67 2.65 1.34 4.3 1 6 C-0.19625 6.165 -1.3925 6.33 -2.625 6.5 C-12.95841 8.83072181 -21.87969087 15.15559236 -28.9609375 22.8203125 C-31.6068928 25.64874747 -34.50537097 28.10272207 -37.46875 30.58984375 C-39.42304604 32.38959087 -39.96007862 33.47346115 -40.16113281 36.12524414 C-40.45092103 54.48130575 -40.03872757 73.19623157 -35.28271484 91.04492188 C-34.95756912 93.29342532 -35.32068257 94.84972909 -36 97 C-38.14326621 91.65380803 -39.74939006 86.52100582 -40.625 80.8125 C-40.74979736 80.00458008 -40.87459473 79.19666016 -41.00317383 78.36425781 C-43.06070317 63.06727123 -42.77883043 47.41099819 -43 32 C-45.475 34.475 -45.475 34.475 -48 37 C-48.66 36.67 -49.32 36.34 -50 36 C-21.13220437 4.1266273 -21.13220437 4.1266273 -4 1 C-4 1.66 -4 2.32 -4 3 C-4.99 3.33 -5.98 3.66 -7 4 C-4.69 4.33 -2.38 4.66 0 5 C0 3.35 0 1.7 0 0 Z " fill="#ECB9C6" transform="translate(241,170)"/>
<path d="M0 0 C0.66 0.33 1.32 0.66 2 1 C1.18595703 1.56267578 1.18595703 1.56267578 0.35546875 2.13671875 C-3.70280923 5.03966715 -6.81981588 7.36710873 -9 12 C-8.34 12.33 -7.68 12.66 -7 13 C-8.65 14.65 -10.3 16.3 -12 18 C-10.68 18.66 -9.36 19.32 -8 20 C-8.66 20.33 -9.32 20.66 -10 21 C-4.72 21.33 0.56 21.66 6 22 C6 22.33 6 22.66 6 23 C5.11699219 23.02578125 4.23398437 23.0515625 3.32421875 23.078125 C-9.2741148 23.67353496 -17.7770895 26.07352397 -26.94189453 34.73413086 C-28.37109375 36.05078125 -28.37109375 36.05078125 -31 38 C-33.34765625 37.79296875 -33.34765625 37.79296875 -35 37 C-35.89453125 34.9140625 -35.89453125 34.9140625 -36 32 C-34.22539799 29.45543577 -31.97282393 27.4581881 -29.6875 25.375 C-28.48115399 24.23901351 -27.27665359 23.10106314 -26.07421875 21.9609375 C-25.53369873 21.46384277 -24.99317871 20.96674805 -24.4362793 20.45458984 C-22.7667674 18.85587761 -22.7667674 18.85587761 -21 16 C-20.34 16 -19.68 16 -19 16 C-18.76667969 15.4225 -18.53335937 14.845 -18.29296875 14.25 C-14.65271089 7.91529146 -6.49489674 3.11213802 0 0 Z " fill="#F7A4B6" transform="translate(36,218)"/>
<path d="M0 0 C0.495 1.485 0.495 1.485 1 3 C0.5153125 3.49886719 0.030625 3.99773437 -0.46875 4.51171875 C-7.87982348 12.45011861 -13.80179925 21.44159863 -17.9375 31.50390625 C-19.07287018 34.17119135 -20.34271518 36.7603268 -21.61669922 39.36352539 C-25.04356458 46.42513257 -27.48515162 53.25263259 -29 61 C-29.66 61 -30.32 61 -31 61 C-32.4598439 71.65827777 -33.45707868 82.2558729 -34 93 C-34.33 93 -34.66 93 -35 93 C-35.81919019 62.90106194 -35.81919019 62.90106194 -31 50 C-30.55676961 48.67030883 -30.11680502 47.33952571 -29.6796875 46.0078125 C-26.91532445 37.86952767 -23.40127832 30.82325204 -18.63671875 23.671875 C-17.18225631 21.29752581 -16.57958294 19.66135025 -16 17 C-14.68945377 15.64426252 -13.35251497 14.31387169 -12 13 C-11.4225 12.071875 -10.845 11.14375 -10.25 10.1875 C-7.36279586 6.09729414 -3.85160549 3.15981227 0 0 Z " fill="#F2A1B4" transform="translate(81,274)"/>
<path d="M0 0 C0.66796875 1.703125 0.66796875 1.703125 1 4 C-0.07421875 6.296875 -0.07421875 6.296875 -1.6875 8.75 C-6.60222049 16.31110845 -9.84857986 23.93732373 -12.625 32.5 C-12.9240625 33.39847656 -13.223125 34.29695313 -13.53125 35.22265625 C-20.78854001 57.28353339 -20.18884468 81.36966059 -15 104 C-14.67 104.33 -14.34 104.66 -14 105 C-13.62404663 107.62579933 -13.2933049 110.2398388 -13 112.875 C-12.39587242 118.51410867 -12.39587242 118.51410867 -11 124 C-8.98491642 124.73323796 -8.98491642 124.73323796 -7 125 C-7.33 123.948125 -7.66 122.89625 -8 121.8125 C-10.04762602 113.53360918 -10.423374 104.48570984 -6 97 C-5.01 96.505 -5.01 96.505 -4 96 C-4.32742187 97.25683594 -4.65484375 98.51367188 -4.9921875 99.80859375 C-6.20361618 105.26002281 -6.22562382 110.50109889 -6.125 116.0625 C-6.11146484 117.50399414 -6.11146484 117.50399414 -6.09765625 118.97460938 C-6.07435208 121.31667805 -6.04164058 123.65819792 -6 126 C-7.98 126 -9.96 126 -12 126 C-14.44984602 119.37896069 -15.94217955 112.83690955 -17.0625 105.875 C-17.23168945 104.83964111 -17.40087891 103.80428223 -17.57519531 102.73754883 C-23.44243336 65.39467008 -19.84914282 34.05544415 -1 1 C-0.67 0.67 -0.34 0.34 0 0 Z " fill="#F5E3E7" transform="translate(64,291)"/>
<path d="M0 0 C4.87212662 2.46765361 9.68273338 5.05267895 14.42651367 7.75878906 C20.42612411 11.0722774 25.54875713 12.78241758 32.38647461 13.47607422 C35.30189967 14.06052094 36.78495529 15.05991508 39 17 C32.20922243 17.31023857 26.38323514 17.25375586 20.00390625 14.77734375 C17.80887439 13.87460174 17.80887439 13.87460174 14.625 13.1875 C10.29575383 11.76929867 6.61052674 9.6862205 2.6484375 7.4609375 C-2.06349588 4.86172941 -6.63186627 2.8133536 -12 2 C-12 1.34 -12 0.68 -12 0 C-17.61 0 -23.22 0 -29 0 C-21.32955642 -7.67044358 -8.92185563 -3.94861972 0 0 Z " fill="#F6A8B9" transform="translate(54,240)"/>
<path d="M0 0 C0.66 0.33 1.32 0.66 2 1 C1.52691406 1.57363281 1.05382812 2.14726563 0.56640625 2.73828125 C-18.42567467 27.1355158 -24.6880964 59.26978313 -30 89 C-28.74509766 89.12955078 -28.74509766 89.12955078 -27.46484375 89.26171875 C-14.74312996 90.7973409 -1.96104265 93.06555335 7 103 C6.67 103.66 6.34 104.32 6 105 C4.700625 103.6696875 4.700625 103.6696875 3.375 102.3125 C-6.19070281 94.20078402 -20.00072552 92.7868169 -32 91 C-32.29854021 84.70431387 -31.18818607 78.95673807 -29.875 72.8125 C-29.64981689 71.75385742 -29.42463379 70.69521484 -29.19262695 69.60449219 C-23.84919899 45.16797214 -16.23256649 19.55951142 0 0 Z " fill="#EBCAD1" transform="translate(234,65)"/>
<path d="M0 0 C2.86122088 1.29840818 4.9192895 2.6708277 7.12890625 4.8984375 C7.68900391 5.46046875 8.24910156 6.0225 8.82617188 6.6015625 C9.6856543 7.47941406 9.6856543 7.47941406 10.5625 8.375 C11.4277832 9.24125 11.4277832 9.24125 12.31054688 10.125 C19.91487622 17.80826702 19.91487622 17.80826702 20.25 22.5 C20.05817732 25.18551758 19.81468853 27.45409836 19 30 C21.31 30 23.62 30 26 30 C28.7039577 22.74847707 29.99322726 15.66331719 31 8 C38.68395543 7.7862269 45.56340812 7.98329712 53 10 C53 10.33 53 10.66 53 11 C46.13484138 11.26404456 39.74153283 10.25841946 33 9 C33.0825 10.0725 33.165 11.145 33.25 12.25 C33.23958761 18.07052517 31.66695988 23.84183978 29 29 C25.59546129 31.52386939 23.25558168 32.57507861 19 32 C18.34 31.34 17.68 30.68 17 30 C17.3046875 28.1875 17.3046875 28.1875 17.875 26 C18.3208281 22.73758732 18.19123097 21.34473966 16.57421875 18.4296875 C12.75195546 13.57578422 8.50140081 9.40549307 3.6640625 5.5703125 C1.84750436 3.85609567 0.97769095 2.28127888 0 0 Z " fill="#F5D5DC" transform="translate(189,351)"/>
<path d="M0 0 C0.33 0 0.66 0 1 0 C1.0825 0.78375 1.165 1.5675 1.25 2.375 C1.73053006 5.06570672 1.73053006 5.06570672 3.6875 6.25 C6.4362755 7.14149476 9.13978281 7.60997038 12 8 C12 8.33 12 8.66 12 9 C10.02 9 8.04 9 6 9 C6.48210937 10.11117187 6.96421875 11.22234375 7.4609375 12.3671875 C12.87307238 25.02351976 15.39218981 35.0990502 15 49 C14.34 48.01 13.68 47.02 13 46 C12.34 46.99 11.68 47.98 11 49 C10.98582031 47.8140625 10.97164062 46.628125 10.95703125 45.40625 C10.61841399 31.70647865 9.13218233 15.62977645 -0.6875 5.125 C-1.450625 4.42375 -2.21375 3.7225 -3 3 C-2.01 2.67 -1.02 2.34 0 2 C0 1.34 0 0.68 0 0 Z " fill="#DEBDCF" transform="translate(139,232)"/>
<path d="M0 0 C0 0.33 0 0.66 0 1 C-1.22332031 1.21914063 -2.44664062 1.43828125 -3.70703125 1.6640625 C-29.90647361 6.52465188 -53.50853162 15.59083282 -75.875 30.125 C-76.90625 30.74375 -77.9375 31.3625 -79 32 C-79.66 31.67 -80.32 31.34 -81 31 C-58.60061409 14.25430524 -28.47230198 -0.49090176 0 0 Z " fill="#F1E3E6" transform="translate(231,0)"/>
<path d="M0 0 C0.66 0.33 1.32 0.66 2 1 C1.67 2.65 1.34 4.3 1 6 C-0.19625 6.165 -1.3925 6.33 -2.625 6.5 C-14.01056073 9.06803657 -23.45852012 16.38116585 -31 25 C-31.66 24.67 -32.32 24.34 -33 24 C-32.44570312 23.49210937 -31.89140625 22.98421875 -31.3203125 22.4609375 C-30.59585938 21.77257812 -29.87140625 21.08421875 -29.125 20.375 C-28.40570313 19.70210937 -27.68640625 19.02921875 -26.9453125 18.3359375 C-24.79844552 16.09168477 -24.79844552 16.09168477 -24.203125 12.99609375 C-22.46619485 8.67068652 -19.6921103 7.64017512 -15.625 5.6875 C-14.61566406 5.16833008 -14.61566406 5.16833008 -13.5859375 4.63867188 C-10.42971081 3.04502592 -7.44408532 1.77172146 -4 1 C-4 1.66 -4 2.32 -4 3 C-4.99 3.33 -5.98 3.66 -7 4 C-4.69 4.33 -2.38 4.66 0 5 C0 3.35 0 1.7 0 0 Z " fill="#F4BDCA" transform="translate(241,170)"/>
<path d="M0 0 C0.33 0.99 0.66 1.98 1 3 C0.34 3.66 -0.32 4.32 -1 5 C-4.48002877 13.52301783 -3.40030221 23.07307342 -2 32 C-3.65 31.67 -5.3 31.34 -7 31 C-8.34495828 23.90294338 -9.24091535 17.2274605 -9 10 C-7.68 10 -6.36 10 -5 10 C-4.9175 9.0925 -4.835 8.185 -4.75 7.25 C-3.90751268 3.59922161 -2.82118382 2.36615417 0 0 Z " fill="#F79DB1" transform="translate(59,384)"/>
<path d="M0 0 C0.928125 0.845625 1.85625 1.69125 2.8125 2.5625 C14.08427484 12.11753158 26.98135131 18.20350472 42 18 C50.28241175 17.30510378 58.14761103 15.71395932 66 13 C63.74711243 15.56857882 61.87401897 16.61591902 58.625 17.625 C57.87476563 17.86476563 57.12453125 18.10453125 56.3515625 18.3515625 C42.66168821 22.12651122 27.57893293 20.92979478 14.93359375 14.421875 C9.37438094 11.06365665 4.00623981 7.18213273 0 2 C0 1.34 0 0.68 0 0 Z " fill="#F1E2E5" transform="translate(224,305)"/>
<path d="M0 0 C-1.25237416 3.75712249 -3.14969361 5.27310002 -6 8 C-7.58749232 9.61957118 -9.17339857 11.24069837 -10.7578125 12.86328125 C-12.54667309 14.67988635 -14.33574136 16.49628696 -16.125 18.3125 C-17.03121094 19.24384766 -17.93742188 20.17519531 -18.87109375 21.13476562 C-19.74121094 22.01455078 -20.61132812 22.89433594 -21.5078125 23.80078125 C-22.29816895 24.60684814 -23.08852539 25.41291504 -23.90283203 26.2434082 C-26 28 -26 28 -29 28 C-27.39011078 24.17082847 -24.846645 21.3278526 -22.0625 18.3125 C-21.58103516 17.78793213 -21.09957031 17.26336426 -20.60351562 16.72290039 C-16.48158128 12.32764063 -12.06521687 8.5494498 -7.3125 4.83984375 C-5.02556609 3.10218224 -5.02556609 3.10218224 -3.3125 1.25390625 C-2 0 -2 0 0 0 Z " fill="#F4CAD3" transform="translate(150,32)"/>
<path d="M0 0 C0.33 0 0.66 0 1 0 C1.07476562 0.66644531 1.14953125 1.33289063 1.2265625 2.01953125 C2.0069165 7.4896598 3.0728104 11.42662712 6.125 16.0625 C10.49030305 23.38769145 9.89428909 31.75362273 9 40 C8.34 40.66 7.68 41.32 7 42 C6.97494385 41.44014404 6.9498877 40.88028809 6.92407227 40.3034668 C6.80796255 37.76458695 6.6853042 35.22606447 6.5625 32.6875 C6.52318359 31.80642578 6.48386719 30.92535156 6.44335938 30.01757812 C6.40146484 29.17001953 6.35957031 28.32246094 6.31640625 27.44921875 C6.27974854 26.66893311 6.24309082 25.88864746 6.20532227 25.0847168 C6.05874737 22.80670899 6.05874737 22.80670899 5 20 C4.34 20 3.68 20 3 20 C-0.13902852 13.19877155 -0.33452052 7.43378943 0 0 Z " fill="#EAA8BC" transform="translate(70,324)"/>
<path d="M0 0 C2.02721618 2.39580094 3.04849549 4.15457936 4 7.1875 C4.33 8.115625 4.66 9.04375 5 10 C5.99 10.33 6.98 10.66 8 11 C8.20625 10.401875 8.4125 9.80375 8.625 9.1875 C10.58923385 6.06258251 12.57365272 5.29296124 16 4 C19.875 3.8125 19.875 3.8125 23 4 C23 4.66 23 5.32 23 6 C21.96939453 6.16435547 21.96939453 6.16435547 20.91796875 6.33203125 C20.01691406 6.49058594 19.11585938 6.64914063 18.1875 6.8125 C17.29417969 6.96332031 16.40085937 7.11414063 15.48046875 7.26953125 C12.72082219 8.08221457 11.70158312 8.70860433 10 11 C9.07783255 13.22951053 9.07783255 13.22951053 8.4375 15.625 C7.74609375 18.0390625 7.74609375 18.0390625 7 20 C4.59454362 21.20272819 3.05003047 21.10071472 0.375 21.0625 C-0.85089844 21.04896484 -0.85089844 21.04896484 -2.1015625 21.03515625 C-2.72804688 21.02355469 -3.35453125 21.01195312 -4 21 C-3.67 20.34 -3.34 19.68 -3 19 C-0.36 19 2.28 19 5 19 C5.3469586 15.27019506 5.48346177 13.59263055 3.0625 10.625 C0.24972832 7.04510877 0.30459864 4.49282999 0 0 Z " fill="#E0B8CA" transform="translate(111,227)"/>
<path d="M0 0 C7.11837871 0.67794083 11.10348458 4.10348458 16 9 C18.13309192 10.23512079 18.13309192 10.23512079 20 11 C19 12 19 12 15.375 12.4375 C10.84292973 12.39689005 8.71515984 10.67157385 5.54296875 7.59375 C5.03378906 7.0678125 4.52460937 6.541875 4 6 C3.195625 5.2575 2.39125 4.515 1.5625 3.75 C0 2 0 2 0 0 Z " fill="#F5ABBC" transform="translate(88,374)"/>
<path d="M0 0 C0.99211787 3.12973734 0.95982248 5.22919068 0.2578125 8.421875 C0.07895508 9.27563721 -0.09990234 10.12939941 -0.28417969 11.0090332 C-0.47915039 11.91355225 -0.67412109 12.81807129 -0.875 13.75 C-2.74282085 22.87267172 -3.73671401 31.6928403 -4 41 C-4.33 41 -4.66 41 -5 41 C-5.08817767 36.56262836 -5.14078435 32.12548653 -5.1875 27.6875 C-5.21263672 26.44419922 -5.23777344 25.20089844 -5.26367188 23.91992188 C-5.32395956 16.2633859 -4.90539036 9.16987548 -2 2 C-1.34 1.34 -0.68 0.68 0 0 Z " fill="#F69AAF" transform="translate(51,326)"/>
<path d="M0 0 C7.42628651 0.75521558 7.42628651 0.75521558 10.34375 2 C13.5509395 3.20741252 16.39765382 3.41803963 19.8125 3.625 C21.55466797 3.73714844 21.55466797 3.73714844 23.33203125 3.8515625 C24.21246094 3.90054687 25.09289062 3.94953125 26 4 C26.33 5.32 26.66 6.64 27 8 C22.71 11.63 18.42 15.26 14 19 C13.34 18.67 12.68 18.34 12 18 C12.86625 17.21753906 13.7325 16.43507813 14.625 15.62890625 C15.75012962 14.60691351 16.8751226 13.58477034 18 12.5625 C18.57234375 12.04623047 19.1446875 11.52996094 19.734375 10.99804688 C21.17519579 9.6858708 22.58985784 8.34509096 24 7 C24 6.67 24 6.34 24 6 C22.081875 6.061875 22.081875 6.061875 20.125 6.125 C12.58320672 6.10120885 5.55730496 5.55730496 0 0 Z " fill="#F7D6DE" transform="translate(68,253)"/>
<path d="M0 0 C0.66 0.33 1.32 0.66 2 1 C1.46890625 1.54527344 0.9378125 2.09054688 0.390625 2.65234375 C-6.60549064 10.12082486 -9.83758722 17.08894142 -12 27 C-12.66 27 -13.32 27 -14 27 C-14.66 27.99 -15.32 28.98 -16 30 C-15.07108346 19.54968892 -11.25036795 10.63196626 -4 3 C-2.69139041 1.96785722 -1.36426115 0.95737625 0 0 Z " fill="#E2B7CA" transform="translate(114,249)"/>
<path d="M0 0 C0.33 0.66 0.66 1.32 1 2 C3.02920499 2.35225072 5.07603569 2.60393652 7.125 2.8125 C18.74790403 4.3543138 29.84886838 6.96344194 38 16 C37.67 16.66 37.34 17.32 37 18 C36.13375 17.113125 35.2675 16.22625 34.375 15.3125 C25.10733952 7.43777446 11.65100787 5.86113502 0 4 C0 2.68 0 1.36 0 0 Z " fill="#F9E7EB" transform="translate(203,152)"/>
<path d="M0 0 C0.33 0 0.66 0 1 0 C1.98641618 7.2748193 2.62087725 14.66522974 2 22 C1.34 22.66 0.68 23.32 0 24 C-3.25943765 20.74056235 -2.92867973 11.58417444 -3.12890625 7.13671875 C-3.12564306 5.09069719 -3.06931694 3.04484964 -3 1 C-2.01 1.495 -2.01 1.495 -1 2 C-0.67 1.34 -0.34 0.68 0 0 Z " fill="#F1A8BA" transform="translate(49,372)"/>
<path d="M0 0 C0.33 0 0.66 0 1 0 C1.99479708 7.38656413 2.11836282 14.61555645 2.0625 22.0625 C2.05798828 23.21427734 2.05347656 24.36605469 2.04882812 25.55273438 C2.03714426 28.36854518 2.02076281 31.18424398 2 34 C2.66 34 3.32 34 4 34 C4 32.35 4 30.7 4 29 C4.33 29 4.66 29 5 29 C4.67 34.61 4.34 40.22 4 46 C3.34 46 2.68 46 2 46 C0.97963867 40.86551276 0.78682568 35.87729059 0.68359375 30.6640625 C0.66281265 29.78471039 0.64203156 28.90535828 0.62062073 27.99935913 C0.55557037 25.20798069 0.49644852 22.41651329 0.4375 19.625 C0.39427238 17.72525145 0.35065677 15.82551169 0.30664062 13.92578125 C0.19993499 9.28394386 0.09854385 4.64201754 0 0 Z " fill="#DEBED0" transform="translate(137,184)"/>
<path d="M0 0 C0.66 0.33 1.32 0.66 2 1 C0.35 2.65 -1.3 4.3 -3 6 C-1.68 6.66 -0.36 7.32 1 8 C0.01 8.495 0.01 8.495 -1 9 C4.28 9.33 9.56 9.66 15 10 C15 10.33 15 10.66 15 11 C14.11699219 11.02578125 13.23398437 11.0515625 12.32421875 11.078125 C5.03304879 11.42271305 -1.05146202 12.32003122 -7.79296875 15.16015625 C-10 16 -10 16 -13 16 C-8.5 12 -8.5 12 -4 12 C-4 11.34 -4 10.68 -4 10 C-5.65 10 -7.3 10 -9 10 C-9 9.34 -9 8.68 -9 8 C-7.28515625 6.30859375 -7.28515625 6.30859375 -5.0625 4.4375 C-4.33160156 3.81746094 -3.60070312 3.19742188 -2.84765625 2.55859375 C-1.93306641 1.78708984 -1.93306641 1.78708984 -1 1 C-0.67 0.67 -0.34 0.34 0 0 Z " fill="#F5D6DE" transform="translate(27,230)"/>
<path d="M0 0 C1.09814453 3.78955078 1.09814453 3.78955078 0.21484375 5.68359375 C-0.20667969 6.26238281 -0.62820313 6.84117187 -1.0625 7.4375 C-6.14630015 14.99947571 -9.46613971 23.6303309 -13 32 C-13.33 32.66 -13.66 33.32 -14 34 C-14.66 34 -15.32 34 -16 34 C-14.31697354 28.50991368 -12.03736692 23.3529684 -9.6875 18.125 C-9.30916016 17.26519531 -8.93082031 16.40539062 -8.54101562 15.51953125 C-6.08910412 10.05147817 -3.32338132 4.98725555 0 0 Z " fill="#ECD4D9" transform="translate(337,242)"/>
<path d="M0 0 C1.43029392 5.72117568 -0.32652875 9.37713661 -2 15 C-8.6 15 -15.2 15 -22 15 C-21.67 14.01 -21.34 13.02 -21 12 C-15.39 12 -9.78 12 -4 12 C-2.68 8.04 -1.36 4.08 0 0 Z " fill="#F5DFE4" transform="translate(90,113)"/>
<path d="M0 0 C0.99 0.33 1.98 0.66 3 1 C2.67 1.66 2.34 2.32 2 3 C3.98 3 5.96 3 8 3 C8 3.33 8 3.66 8 4 C6.39125 4.309375 6.39125 4.309375 4.75 4.625 C0.22530273 6.28405567 -0.65839181 7.90218567 -3 12 C-4.75 13.875 -4.75 13.875 -6 15 C-6.66 14.67 -7.32 14.34 -8 14 C-6.35 12.02 -4.7 10.04 -3 8 C-4.05270463 6.84188612 -4.05270463 6.84188612 -6 6 C-4 4 -2 2 0 0 Z " fill="#EFA5B8" transform="translate(119,371)"/>
<path d="M0 0 C0.79779161 2.30146924 1.15708687 3.55411318 0.33496094 5.88769531 C-0.02823242 6.52803711 -0.39142578 7.16837891 -0.765625 7.828125 C-1.16136719 8.54613281 -1.55710937 9.26414062 -1.96484375 10.00390625 C-2.38894531 10.74511719 -2.81304687 11.48632812 -3.25 12.25 C-6.33722351 17.73298687 -8.92672022 23.04941776 -11 29 C-11.66 29 -12.32 29 -13 29 C-10.98059262 22.38449332 -8.38404513 16.22192881 -5.375 10 C-4.96765625 9.14277344 -4.5603125 8.28554687 -4.140625 7.40234375 C-1.1465853 1.1465853 -1.1465853 1.1465853 0 0 Z " fill="#EED9DE" transform="translate(104,83)"/>
<path d="M0 0 C0.66 0.33 1.32 0.66 2 1 C1.09378906 1.61746094 0.18757813 2.23492187 -0.74609375 2.87109375 C-8.18728401 8.01796813 -14.86685487 13.28274581 -21 20 C-21.66 19.67 -22.32 19.34 -23 19 C-22.01 17.515 -22.01 17.515 -21 16 C-20.34 16 -19.68 16 -19 16 C-18.76667969 15.4225 -18.53335937 14.845 -18.29296875 14.25 C-14.65271089 7.91529146 -6.49489674 3.11213802 0 0 Z " fill="#FAEDEF" transform="translate(36,218)"/>
<path d="M0 0 C1.08203125 1.828125 1.08203125 1.828125 2 4 C1.03685937 6.01800895 0.03041427 8.01549844 -1 10 C-1.35102706 12.06413365 -1.35102706 12.06413365 -1.5 14.1875 C-2.01592226 18.12140727 -2.20717426 18.60084384 -5 21 C-5.57650114 12.59589453 -5.59204823 6.61059987 0 0 Z " fill="#E5B1C4" transform="translate(74,314)"/>
<path d="M0 0 C0.33 0 0.66 0 1 0 C1.27990605 7.89957062 0.51537186 15.2472493 -1 23 C-3.0625 21.25 -3.0625 21.25 -5 19 C-4.84375 17.0234375 -4.84375 17.0234375 -4 15 C-3.7628125 14.29101562 -3.525625 13.58203125 -3.28125 12.8515625 C-2.89453125 11.74941406 -2.89453125 11.74941406 -2.5 10.625 C-1.30570807 7.10038236 -0.47476447 3.70316284 0 0 Z " fill="#E9AABD" transform="translate(152,272)"/>
<path d="M0 0 C0.66015625 1.71484375 0.66015625 1.71484375 1 4 C-0.00390625 6.19140625 -0.00390625 6.19140625 -1.5625 8.5625 C-4.96745469 13.91314308 -8.00422386 19.41213387 -11 25 C-11.33 24.34 -11.66 23.68 -12 23 C-10.85005088 20.18307038 -9.63766485 17.48300896 -8.3125 14.75 C-7.95994141 13.99847656 -7.60738281 13.24695313 -7.24414062 12.47265625 C-5.13319013 8.0500799 -2.82484224 4.00451677 0 0 Z " fill="#F8E7EA" transform="translate(64,291)"/>
<path d="M0 0 C0.87785156 -0.00257813 1.75570312 -0.00515625 2.66015625 -0.0078125 C4.9375 0.125 4.9375 0.125 6.9375 1.125 C6.9375 1.785 6.9375 2.445 6.9375 3.125 C0.9975 3.455 -4.9425 3.785 -11.0625 4.125 C-7.29415679 0.35665679 -5.11074343 -0.01505374 0 0 Z " fill="#F29EB2" transform="translate(36.0625,235.875)"/>
<path d="M0 0 C0 3 0 3 -1.71484375 4.90234375 C-3.193901 6.25662992 -4.67306728 7.61079703 -6.15234375 8.96484375 C-8.05106103 11.0562427 -8.61175486 12.24530829 -9 15 C-7.68 15.33 -6.36 15.66 -5 16 C-6.875 17.0625 -6.875 17.0625 -9 18 C-11 17 -11 17 -11.99609375 14.83203125 C-12.00061848 11.55160081 -11.62446223 11.1879063 -9.47265625 8.88671875 C-8.35079819 7.80468997 -7.21331017 6.73868398 -6.0625 5.6875 C-5.48564453 5.13771484 -4.90878906 4.58792969 -4.31445312 4.02148438 C-2.88938934 2.66708491 -1.44634142 1.33165356 0 0 Z " fill="#F8F0F2" transform="translate(12,238)"/>
<path d="M0 0 C0.66 0 1.32 0 2 0 C0.45925399 3.46667851 -1.62742241 6.05030894 -4 9 C-5.82106286 11.65215194 -7.62589257 14.31383496 -9.4140625 16.98828125 C-10.19910156 17.98408203 -10.19910156 17.98408203 -11 19 C-11.66 19 -12.32 19 -13 19 C-11.68462703 15.30132749 -10.08520735 12.55108685 -7.625 9.5 C-7.00496094 8.72785156 -6.38492188 7.95570313 -5.74609375 7.16015625 C-5.16988281 6.44730469 -4.59367187 5.73445313 -4 5 C-2.8553125 3.4840625 -2.8553125 3.4840625 -1.6875 1.9375 C-1.130625 1.298125 -0.57375 0.65875 0 0 Z " fill="#F9E5E9" transform="translate(78,272)"/>
<path d="M0 0 C0.99 0.33 1.98 0.66 3 1 C-2.75 6 -2.75 6 -5 6 C-6.80060998 7.55683115 -6.80060998 7.55683115 -8.625 9.5 C-9.25664063 10.1496875 -9.88828125 10.799375 -10.5390625 11.46875 C-11.02117187 11.9740625 -11.50328125 12.479375 -12 13 C-12 10 -12 10 -9.8125 7.5625 C-3.35135135 1.67567568 -3.35135135 1.67567568 0 0 Z " fill="#CDDDED" transform="translate(111,249)"/>
<path d="M0 0 C0.33 0.66 0.66 1.32 1 2 C1.99 2.33 2.98 2.66 4 3 C3.01 3.66 2.02 4.32 1 5 C0.67 5.99 0.34 6.98 0 8 C-2.27208411 9.51472274 -4.56019185 10.78009593 -7 12 C-7 11.34 -7 10.68 -7 10 C-7.66 9.67 -8.32 9.34 -9 9 C-8.43410156 8.60167969 -7.86820312 8.20335937 -7.28515625 7.79296875 C-6.55167969 7.26316406 -5.81820312 6.73335938 -5.0625 6.1875 C-4.33160156 5.66542969 -3.60070312 5.14335937 -2.84765625 4.60546875 C-0.73116774 3.04132873 -0.73116774 3.04132873 0 0 Z " fill="#EFACBE" transform="translate(75,368)"/>
<path d="M0 0 C0.99 0.33 1.98 0.66 3 1 C2.34 1 1.68 1 1 1 C1 1.66 1 2.32 1 3 C2.134375 3.28875 3.26875 3.5775 4.4375 3.875 C5.613125 4.24625 6.78875 4.6175 8 5 C8.33 5.66 8.66 6.32 9 7 C5.7 6.34 2.4 5.68 -1 5 C-1 4.34 -1 3.68 -1 3 C-5.29 3 -9.58 3 -14 3 C-14 2.67 -14 2.34 -14 2 C-9.38 2 -4.76 2 0 2 C0 1.34 0 0.68 0 0 Z " fill="#F8BFCB" transform="translate(43,237)"/>
<path d="M0 0 C0.66 0.33 1.32 0.66 2 1 C1.34 1.66 0.68 2.32 0 3 C0 4.32 0 5.64 0 7 C-1.64453125 8.81640625 -1.64453125 8.81640625 -3.8125 10.5625 C-6.32956487 12.62108311 -8.74231008 14.65684548 -11 17 C-11.66 16.67 -12.32 16.34 -13 16 C-12.16855469 15.23816406 -12.16855469 15.23816406 -11.3203125 14.4609375 C-7.13098595 10.48033184 -4.49598785 7.71195362 -3 2 C-2.01 1.34 -1.02 0.68 0 0 Z " fill="#F5CDD8" transform="translate(221,178)"/>
<path d="M0 0 C0.66 0.33 1.32 0.66 2 1 C-5.29840547 7.33485194 -5.29840547 7.33485194 -9 10 C-9.66 9.67 -10.32 9.34 -11 9 C-10.34 8.34 -9.68 7.68 -9 7 C-8.35232207 4.42938689 -8.35232207 4.42938689 -8 2 C-6.8553125 2.3403125 -6.8553125 2.3403125 -5.6875 2.6875 C-4.800625 2.790625 -3.91375 2.89375 -3 3 C-1.1645201 1.66621425 -1.1645201 1.66621425 0 0 Z " fill="#F6CCD6" transform="translate(72,376)"/>
<path d="M0 0 C1.84187025 2.76280538 2.72248277 4.80707826 3.6875 7.9375 C3.95949219 8.79214844 4.23148437 9.64679687 4.51171875 10.52734375 C5.02075548 13.10510574 4.84888744 14.54449337 4 17 C1.07037234 11.93973405 -0.34650005 6.78347452 -1 1 C-0.67 0.67 -0.34 0.34 0 0 Z " fill="#EFCED5" transform="translate(392,32)"/>
<path d="M0 0 C-1.52059907 3.88014936 -3.86078531 5.73906562 -7.125 8.25 C-8.03507812 8.95640625 -8.94515625 9.6628125 -9.8828125 10.390625 C-10.58148438 10.92171875 -11.28015625 11.4528125 -12 12 C-12.66 11.67 -13.32 11.34 -14 11 C-12.04709472 9.16056628 -10.08818082 7.32840869 -8.125 5.5 C-7.29162109 4.71302734 -7.29162109 4.71302734 -6.44140625 3.91015625 C-2.2265625 0 -2.2265625 0 0 0 Z " fill="#F8E8EB" transform="translate(94,260)"/>
<path d="M0 0 C0.33 0 0.66 0 1 0 C1.0825 0.78375 1.165 1.5675 1.25 2.375 C1.73053006 5.06570672 1.73053006 5.06570672 3.6875 6.25 C6.4362755 7.14149476 9.13978281 7.60997038 12 8 C12 8.33 12 8.66 12 9 C3.99173554 9.78512397 3.99173554 9.78512397 0 6.625 C-2 4 -2 4 -3 2 C-2.01 2 -1.02 2 0 2 C0 1.34 0 0.68 0 0 Z " fill="#DEB9CB" transform="translate(139,232)"/>
<path d="M0 0 C0.33 0 0.66 0 1 0 C0.67 5.61 0.34 11.22 0 17 C-0.66 17 -1.32 17 -2 17 C-2 13.04 -2 9.08 -2 5 C-1.34 5 -0.68 5 0 5 C0 3.35 0 1.7 0 0 Z " fill="#E1B6C9" transform="translate(141,213)"/>
<path d="M0 0 C0.33 0.66 0.66 1.32 1 2 C0.25853045 3.85367387 -0.48371107 5.70704389 -1.23046875 7.55859375 C-2.60736898 11.92693206 -2.75735749 16.44836114 -3 21 C-3.33 21 -3.66 21 -4 21 C-4.55779487 7.26171897 -4.55779487 7.26171897 -1 1 C-0.67 0.67 -0.34 0.34 0 0 Z " fill="#FAD0D7" transform="translate(59,387)"/>
<path d="M0 0 C0.66 0.33 1.32 0.66 2 1 C1.01 2.485 1.01 2.485 0 4 C-0.33 4.99 -0.66 5.98 -1 7 C-1.99 7 -2.98 7 -4 7 C-5.65503095 8.0772721 -5.65503095 8.0772721 -7.1875 9.5 C-8.115625 10.325 -9.04375 11.15 -10 12 C-7.75066455 6.93899525 -4.58147862 3.10886049 0 0 Z " fill="#F6A6B8" transform="translate(84,269)"/>
<path d="M0 0 C0.67578125 1.671875 0.67578125 1.671875 1 4 C-0.14453125 6.578125 -0.14453125 6.578125 -1.8125 9.25 C-2.35519531 10.14203125 -2.89789063 11.0340625 -3.45703125 11.953125 C-3.96621094 12.62859375 -4.47539062 13.3040625 -5 14 C-5.66 14 -6.32 14 -7 14 C-5.53967505 8.68972746 -3.01679014 4.53669968 0 0 Z " fill="#F4E1E4" transform="translate(337,242)"/>
<path d="M0 0 C0.625 1.875 0.625 1.875 1 4 C-1 6 -1 6 -4.125 6.125 C-5.548125 6.063125 -5.548125 6.063125 -7 6 C-6 3 -6 3 -2.9375 1.3125 C-1.968125 0.879375 -0.99875 0.44625 0 0 Z " fill="#F69EB1" transform="translate(128,368)"/>
<path d="M0 0 C0.99 0 1.98 0 3 0 C2.40138258 2.35171131 1.73075648 4.6859378 1 7 C-1.40545638 8.20272819 -2.94996953 8.10071472 -5.625 8.0625 C-6.85089844 8.04896484 -6.85089844 8.04896484 -8.1015625 8.03515625 C-9.04128906 8.01775391 -9.04128906 8.01775391 -10 8 C-9.67 7.34 -9.34 6.68 -9 6 C-6.36 6 -3.72 6 -1 6 C-0.67 4.02 -0.34 2.04 0 0 Z " fill="#D9C5D6" transform="translate(117,240)"/>
<path d="M0 0 C0.66 0.33 1.32 0.66 2 1 C-1.63 4.63 -5.26 8.26 -9 12 C-9 8.00102358 -7.64683965 6.93298448 -5 4 C-3.36643049 2.62631655 -1.7074998 1.28062485 0 0 Z " fill="#CFD9EA" transform="translate(162,169)"/>
<path d="M0 0 C1.90389849 2.85584773 2.69462177 4.9311762 3.625 8.1875 C3.88539063 9.08855469 4.14578125 9.98960937 4.4140625 10.91796875 C4.60742188 11.60503906 4.80078125 12.29210937 5 13 C4.01 12.67 3.02 12.34 2 12 C1.05078125 9.49609375 1.05078125 9.49609375 0.3125 6.4375 C0.06113281 5.42558594 -0.19023437 4.41367187 -0.44921875 3.37109375 C-0.63097656 2.58863281 -0.81273437 1.80617188 -1 1 C-0.67 0.67 -0.34 0.34 0 0 Z " fill="#EFD0D7" transform="translate(207,271)"/>
<path d="M0 0 C0.33 0 0.66 0 1 0 C1.27429625 5.39449293 1.36055646 8.51925805 -2 13 C-3.18414294 9.44757118 -2.69535532 8.30169438 -1.5625 4.8125 C-1.27503906 3.91144531 -0.98757812 3.01039063 -0.69140625 2.08203125 C-0.46324219 1.39496094 -0.23507813 0.70789063 0 0 Z " fill="#EEA2B6" transform="translate(100,273)"/>
<path d="M0 0 C0.66 0.33 1.32 0.66 2 1 C-3.42465753 7.78082192 -3.42465753 7.78082192 -7 10 C-7.66 10 -8.32 10 -9 10 C-9 9.34 -9 8.68 -9 8 C-7.28515625 6.30859375 -7.28515625 6.30859375 -5.0625 4.4375 C-3.96615234 3.50744141 -3.96615234 3.50744141 -2.84765625 2.55859375 C-2.23792969 2.04425781 -1.62820312 1.52992188 -1 1 C-0.67 0.67 -0.34 0.34 0 0 Z " fill="#D1D6E7" transform="translate(27,230)"/>
<path d="M0 0 C0.33 0 0.66 0 1 0 C1.33776684 1.7491497 1.67003671 3.49936145 2 5.25 C2.185625 6.22453125 2.37125 7.1990625 2.5625 8.203125 C3 11 3 11 3 15 C2.34 15 1.68 15 1 15 C-0.09506492 11.71480525 -0.09960608 9.26336585 -0.0625 5.8125 C-0.05347656 4.72582031 -0.04445313 3.63914062 -0.03515625 2.51953125 C-0.02355469 1.68808594 -0.01195313 0.85664063 0 0 Z " fill="#F19EB2" transform="translate(70,324)"/>
<path d="M0 0 C0.66 0.33 1.32 0.66 2 1 C-0.64 3.97 -3.28 6.94 -6 10 C-6.33 9.01 -6.66 8.02 -7 7 C-4.66666667 4.66666667 -2.33333333 2.33333333 0 0 Z " fill="#E0B7CA" transform="translate(114,249)"/>
<path d="M0 0 C0.99 0 1.98 0 3 0 C3.99 2.64 4.98 5.28 6 8 C5.34 8.66 4.68 9.32 4 10 C2.68 6.7 1.36 3.4 0 0 Z " fill="#D2CFE0" transform="translate(142,241)"/>
<path d="M0 0 C-1.15093722 3.45281166 -2.3205993 4.38082163 -5.0625 6.6875 C-5.79597656 7.31011719 -6.52945312 7.93273437 -7.28515625 8.57421875 C-7.85105469 9.04472656 -8.41695313 9.51523438 -9 10 C-9 7 -9 7 -7.5390625 5.17578125 C-6.90742188 4.56089844 -6.27578125 3.94601563 -5.625 3.3125 C-4.68527344 2.37857422 -4.68527344 2.37857422 -3.7265625 1.42578125 C-2 0 -2 0 0 0 Z " fill="#F2E9EA" transform="translate(351,228)"/>
<path d="M0 0 C0.66 0.33 1.32 0.66 2 1 C1.67 2.98 1.34 4.96 1 7 C0.01 7 -0.98 7 -2 7 C-2 5 -2 3 -2 1 C-1.34 0.67 -0.68 0.34 0 0 Z " fill="#F2BDC9" transform="translate(129,366)"/>
<path d="M0 0 C2.50298434 2.93828597 3.46930939 5.17902761 4 9 C3.01 9.495 3.01 9.495 2 10 C0.39644899 6.49223216 -0.22036864 3.85645121 0 0 Z " fill="#D8C6D8" transform="translate(111,227)"/>
<path d="M0 0 C0.66 0.33 1.32 0.66 2 1 C1.67 1.33 1.34 1.66 1 2 C1.99 2.66 2.98 3.32 4 4 C2.02 4.66 0.04 5.32 -2 6 C-2 4.35 -2 2.7 -2 1 C-1.34 0.67 -0.68 0.34 0 0 Z " fill="#F3BBC8" transform="translate(229,174)"/>
<path d="M0 0 C0.33 0.66 0.66 1.32 1 2 C0.22265625 3.7265625 0.22265625 3.7265625 -0.9375 5.625 C-1.618125 6.73875 -2.29875 7.8525 -3 9 C-3.66 9 -4.32 9 -5 9 C-3.7508258 5.54074837 -2.32472205 2.85306797 0 0 Z " fill="#F3DFE3" transform="translate(113,69)"/>
<path d="M0 0 C0.33 0.66 0.66 1.32 1 2 C-0.98 4.31 -2.96 6.62 -5 9 C-5.66 8.67 -6.32 8.34 -7 8 C-4.69 5.36 -2.38 2.72 0 0 Z " fill="#F8E5E9" transform="translate(118,377)"/>
<path d="M0 0 C0.99 0.33 1.98 0.66 3 1 C2.67 1.66 2.34 2.32 2 3 C3.98 3 5.96 3 8 3 C8 3.33 8 3.66 8 4 C5.36 4.66 2.72 5.32 0 6 C0 4.02 0 2.04 0 0 Z " fill="#F5C5D3" transform="translate(119,371)"/>
<path d="M0 0 C0.33 0.66 0.66 1.32 1 2 C0.01 3.32 -0.98 4.64 -2 6 C-2.33 5.34 -2.66 4.68 -3 4 C-3.99 4.66 -4.98 5.32 -6 6 C-5.25 3.5625 -5.25 3.5625 -4 1 C-1.875 0.1875 -1.875 0.1875 0 0 Z " fill="#ECB0C2" transform="translate(62,304)"/>
<path d="M0 0 C2.0625 1.75 2.0625 1.75 4 4 C3.75 6.25 3.75 6.25 3 8 C1.68 6.02 0.36 4.04 -1 2 C-0.67 1.34 -0.34 0.68 0 0 Z " fill="#EAA9BD" transform="translate(107,222)"/>
<path d="M0 0 C0.99 0.495 0.99 0.495 2 1 C1.01 1.495 1.01 1.495 0 2 C0 1.34 0 0.68 0 0 Z M-1 2 C-0.67 2.99 -0.34 3.98 0 5 C-1.65 6.32 -3.3 7.64 -5 9 C-4.43628586 5.73045798 -3.50037734 4.17424117 -1 2 Z " fill="#F69EB2" transform="translate(217,181)"/>
<path d="M0 0 C0.33 0.99 0.66 1.98 1 3 C3.01508358 3.73323796 3.01508358 3.73323796 5 4 C3.125 5.0625 3.125 5.0625 1 6 C0.34 5.67 -0.32 5.34 -1 5 C-0.67 3.35 -0.34 1.7 0 0 Z " fill="#F6CBD3" transform="translate(2,250)"/>
</svg>
